<?xml version="1.0" encoding="utf-8"?>
<!-- Generator: Adobe Illustrator 24.3.0, SVG Export Plug-In . SVG Version: 6.00 Build 0)  -->
<svg version="1.1" id="Layer_1" xmlns="http://www.w3.org/2000/svg" xmlns:xlink="http://www.w3.org/1999/xlink" x="0px" y="0px"
	 viewBox="0 0 307.3 251.1" style="enable-background:new 0 0 307.3 251.1;" xml:space="preserve">
<style type="text/css">
	.st0{fill-rule:evenodd;clip-rule:evenodd;fill:#1A1A1A;}
</style>
<g>
	<g>
		<path class="st0" d="M8.9,6.3c-1.6,41.9,26,78.8,66.2,89.4c-7.3,0-14.6-1.6-21.5-4.5c-7.7-1.6-15.8,0.4-21.5,5.7
			c-6.1,5.7-8.9,13.4-8.1,21.1c26.4,5.3,53.2-5.7,68.7-27.6c2.4-2.8,4.1-6.9,3.7-11c0-4.9-2.4-9.3-6.1-12.2
			C53.2,66,20.7,41.6,8.9,6.3L8.9,6.3z"/>
		<path class="st0" d="M79.6,143.6c14.6,5.7,25.6,18.3,29.7,33.7c4.5,15,1.2,31.7-8.1,44.3c6.5,0,12.6-2.8,17.5-7.3
			c6.5-17.1,8.9-35.8,7.3-54c-20.3-9.8-35.8-27.6-42.3-49.2C78,120.9,76.8,132.6,79.6,143.6L79.6,143.6z"/>
		<path class="st0" d="M123.1,243.2c10.2,3.3,21.5,1.6,30.5-4.5c-14.2-3.7-26.8-12.2-34.9-24.4c-4.9,4.5-11,7.3-17.5,7.3
			C104.8,231.8,112.9,239.9,123.1,243.2L123.1,243.2z"/>
		<path class="st0" d="M153.5,238.7c8.9,6.1,20.3,7.7,30.5,4.5c10.2-3.3,18.3-11.4,21.9-21.5c-6.5,0-12.6-2.8-17.5-7.3
			C180.4,226.5,167.8,235,153.5,238.7L153.5,238.7z"/>
		<path class="st0" d="M181.2,160.3c-1.6,18.3,0.8,37,7.3,54c4.9,4.5,11,7.3,17.5,7.3c-9.3-12.6-12.6-29.3-8.1-44.3
			c4.1-15.4,15-28,29.7-33.7c2.8-11,1.6-22.8-4.1-32.5C216.9,132.6,201.5,150.5,181.2,160.3L181.2,160.3z"/>
		<path class="st0" d="M214.5,90.4c15.4,21.9,42.3,32.9,68.7,27.6c0.8-7.7-2-15.4-8.1-21.1c-5.7-5.3-13.8-7.3-21.5-5.7
			c-6.9,2.8-14.2,4.5-21.5,4.5c40.2-10.2,67.9-47.5,66.2-89.4C286.5,41.6,254,66,217,67.2c-3.7,2.8-6.1,7.3-6.1,12.2
			C210.4,83.5,212.1,87.5,214.5,90.4L214.5,90.4z"/>
		<path class="st0" d="M108.9,65.2c16.7,6.9,32.1,17.1,44.7,30.1c12.6-13,28-23.2,44.7-30.1c-15.4,1.6-30.5,5.7-44.7,11.8
			C139.3,70.9,124.3,66.8,108.9,65.2L108.9,65.2z"/>
	</g>
</g>
</svg>
