<?xml version="1.0" encoding="utf-8"?>
<!-- Generator: Adobe Illustrator 26.1.0, SVG Export Plug-In . SVG Version: 6.00 Build 0)  -->
<svg version="1.1" id="Image" xmlns="http://www.w3.org/2000/svg" xmlns:xlink="http://www.w3.org/1999/xlink" x="0px" y="0px"
	 viewBox="0 0 523 319" style="enable-background:new 0 0 523 319;" xml:space="preserve">
<style type="text/css">
	.st0{fill:#FCFCFC;}
	.st1{fill:none;stroke:#D4D4D4;stroke-miterlimit:10;}
	.st2{fill:#F27777;}
	.st3{fill:#F2C877;}
	.st4{fill:#95D679;}
	.st5{fill:#FFFFFF;}
</style>
<g id="Rectangle_2">
	<path class="st0" d="M5,0h513c2.8,0,5,2.2,5,5v35l0,0H0l0,0V5C0,2.2,2.2,0,5,0z"/>
	<path class="st1" d="M5,0.5h513c2.5,0,4.5,2,4.5,4.5v34.5l0,0H0.5l0,0V5C0.5,2.5,2.5,0.5,5,0.5z"/>
</g>
<circle id="Oval_2" class="st2" cx="27" cy="20" r="7"/>
<circle id="Oval_2_Copy" class="st3" cx="48" cy="20" r="7"/>
<circle id="Oval_2_Copy_2" class="st4" cx="69" cy="20" r="7"/>
<g id="Rectangle_2_Copy" transform="translate(0 39)">
	<path class="st5" d="M0,0h523l0,0v275c0,2.8-2.2,5-5,5H5c-2.8,0-5-2.2-5-5V0L0,0z"/>
	<path class="st1" d="M0.5,0.5h522l0,0V275c0,2.5-2,4.5-4.5,4.5H5c-2.5,0-4.5-2-4.5-4.5V0.5L0.5,0.5z"/>
</g>
</svg>
