<?xml version="1.0" encoding="utf-8"?>
<!-- Generator: Adobe Illustrator 26.1.0, SVG Export Plug-In . SVG Version: 6.00 Build 0)  -->
<svg version="1.1" id="Phone" xmlns="http://www.w3.org/2000/svg" xmlns:xlink="http://www.w3.org/1999/xlink" x="0px" y="0px"
	 viewBox="0 0 200 391.5" style="enable-background:new 0 0 200 391.5;" xml:space="preserve">
<style type="text/css">
	.st0{fill:#FFFFFF;}
	.st1{fill:none;stroke:#575757;stroke-width:3;stroke-miterlimit:10;}
</style>
<g id="Rectangle_2_Copy" transform="translate(0 0)">
	<path class="st0" d="M40,0h120c22.1,0,40,17.9,40,40v311.5c0,22.1-17.9,40-40,40H40c-22.1,0-40-17.9-40-40V40C0,17.9,17.9,0,40,0z"
		/>
	<path class="st1" d="M40,1.5h120c21.3,0,38.5,17.2,38.5,38.5v311.5c0,21.3-17.2,38.5-38.5,38.5H40c-21.3,0-38.5-17.2-38.5-38.5V40
		C1.5,18.7,18.7,1.5,40,1.5z"/>
</g>
</svg>
