<?xml version="1.0" encoding="utf-8"?>
<!-- Generator: Adobe Illustrator 26.1.0, SVG Export Plug-In . SVG Version: 6.00 Build 0)  -->
<svg version="1.1" id="Image" xmlns="http://www.w3.org/2000/svg" xmlns:xlink="http://www.w3.org/1999/xlink" x="0px" y="0px"
	 viewBox="0 0 552 440" style="enable-background:new 0 0 552 440;" xml:space="preserve">
<style type="text/css">
	.st0{fill:#F8F8F8;}
	.st1{clip-path:url(#SVGID_00000037688816265168815470000017977655654790939809_);}
	.st2{fill:#FFFFFF;}
	.st3{fill:none;stroke:#575757;stroke-width:3;stroke-miterlimit:10;}
	.st4{fill:#B3B3B3;}
</style>
<path id="Rectangle_2_Copy-2" class="st0" d="M20,0h512c11,0,20,9,20,20v420l0,0H0l0,0V20C0,9,9,0,20,0z"/>
<g>
	<defs>
		<path id="SVGID_1_" d="M20,0h512c11,0,20,9,20,20v420l0,0H0l0,0V20C0,9,9,0,20,0z"/>
	</defs>
	<clipPath id="SVGID_00000049210291970479443150000005622806392702798474_">
		<use xlink:href="#SVGID_1_"  style="overflow:visible;"/>
	</clipPath>
	<g id="Image-2" style="clip-path:url(#SVGID_00000049210291970479443150000005622806392702798474_);">
		<g id="Rectangle_2_Copy-3" transform="translate(76 80)">
			<path class="st2" d="M50,0h300c27.6,0,50,22.4,50,50v313l0,0H0l0,0V50C0,22.4,22.4,0,50,0z"/>
			<path class="st3" d="M50,1.5h300c26.8,0,48.5,21.7,48.5,48.5v311.5l0,0H1.5l0,0V50C1.5,23.2,23.2,1.5,50,1.5z"/>
		</g>
		<g id="Combined_Shape" transform="translate(101 105)">
			<path class="st2" d="M349,337.7H1V40c0-5.3,1-10.4,3.1-15.2c2-4.6,4.8-8.8,8.4-12.4C16,8.8,20.2,6,24.8,4.1C29.6,2,34.7,1,40,1
				h42.5c-0.1,2.7,0.3,5.3,1.1,7.9L83.5,9l1.6,3l0.2-0.1c1.8,2.3,4,4.2,6.6,5.6c3.1,1.7,6.5,2.5,10,2.5h149.6c2.7,0,5.4-0.8,7.8-2.2
				c2.4-1.5,4.4-3.5,5.7-5.8c1.8-3.4,2.7-7.2,2.5-11H310c5.3,0,10.4,1,15.2,3.1c4.6,2,8.8,4.8,12.4,8.4c3.6,3.6,6.4,7.8,8.4,12.4
				c2,4.8,3.1,9.9,3.1,15.2V337.7z"/>
			<path class="st4" d="M348,336.7V40c0-5.1-1-10.1-3-14.8c-1.9-4.5-4.7-8.6-8.1-12.1c-3.5-3.5-7.6-6.2-12.1-8.1
				c-4.7-2-9.7-3-14.8-3h-41.5c0,3.6-0.9,7.2-2.7,10.5c-1.3,2.5-3.4,4.6-6,6.2c-2.6,1.5-5.5,2.4-8.3,2.4H101.9
				c-3.6,0-7.3-0.9-10.5-2.7c-2.7-1.5-5.1-3.5-7-6l-0.2,0.1l-1.6-3l0.2-0.1C82,7,81.5,4.5,81.5,2H40c-5.1,0-10.1,1-14.8,3
				c-4.5,1.9-8.6,4.7-12.1,8.1C9.6,16.6,6.9,20.7,5,25.2C3,29.9,2,34.9,2,40v296.7H348 M350,338.7L350,338.7l-350,0V40
				c0-5.4,1.1-10.6,3.1-15.6c2-4.8,4.9-9,8.6-12.7c3.7-3.7,8-6.6,12.7-8.6C29.4,1.1,34.6,0,40,0h43.6c-0.3,3.4,0.2,6.8,1.6,9.9
				c-0.3-0.5-0.6-0.9-0.9-1.4l1.6,3c-0.3-0.5-0.5-1-0.8-1.5c1.8,2.8,4.3,5,7.2,6.6c2.9,1.6,6.2,2.4,9.5,2.4h149.6
				c2.5,0,5-0.7,7.3-2.1c2.3-1.4,4.1-3.2,5.3-5.4C266,7.9,266.8,4,266.4,0H310c5.4,0,10.6,1.1,15.6,3.1c4.8,2,9,4.9,12.7,8.6
				c3.7,3.7,6.6,8,8.6,12.7c2.1,4.9,3.1,10.2,3.1,15.6V338.7z"/>
		</g>
	</g>
</g>
</svg>
