<?xml version="1.0" encoding="utf-8"?>
<!-- Generator: Adobe Illustrator 26.1.0, SVG Export Plug-In . SVG Version: 6.00 Build 0)  -->
<svg version="1.1" id="Layer_1" xmlns="http://www.w3.org/2000/svg" xmlns:xlink="http://www.w3.org/1999/xlink" x="0px" y="0px"
	 viewBox="0 0 1441.6 609.5" style="enable-background:new 0 0 1441.6 609.5;" xml:space="preserve">
<style type="text/css">
	.st0{fill:none;stroke:#E2E2E2;stroke-width:3;stroke-miterlimit:10;}
	.st1{opacity:0.5;fill:#5A5B70;}
	.st2{fill:#FFFFFF;stroke:#E2E2E2;stroke-width:3;stroke-miterlimit:10;}
	.st3{fill:none;stroke:#575757;stroke-width:3;stroke-miterlimit:10;}
	.st4{fill:#FFFFFF;stroke:#575757;stroke-width:3;stroke-miterlimit:10;}
</style>
<g id="Stats" transform="translate(0.871 1.5)">
	<path id="Path_2" class="st0" d="M-0.7,474.7l212.2-151.4l115.4,65L547.2,184l88.7,94l172.4,29.4l127-48.5l226.9-14.9L1322,10.1
		l117.3,66.3"/>
	<path id="Path_2-2" class="st1" d="M-0.7,474.2L211.5,323l115.4,64.9l220.3-204.1l88.7,93.9L808.3,307l127-48.5l226.9-14.9
		L1322,10.1l117.3,66.3V608H-0.7V474.2z"/>
	<circle id="Oval_3" class="st2" cx="211.3" cy="324" r="10"/>
	<circle id="Oval_3_Copy" class="st2" cx="328.3" cy="385" r="10"/>
	<circle id="Oval_3_Copy_2" class="st2" cx="548.3" cy="182" r="10"/>
	<circle id="Oval_3_Copy_3" class="st2" cx="637.3" cy="275" r="10"/>
	<circle id="Oval_3_Copy_4" class="st2" cx="810.3" cy="304" r="10"/>
	<circle id="Oval_3_Copy_5" class="st2" cx="937.3" cy="258" r="10"/>
	<circle id="Oval_3_Copy_6" class="st2" cx="1162.3" cy="242" r="10"/>
	<circle id="Oval_3_Copy_7" class="st2" cx="1323.3" cy="10" r="10"/>
</g>
<g id="Stats_00000165233793961709756960000009104516270159031473_" transform="translate(0.871 1.5)">
	<path id="Path_2_00000180339511313467637400000011660886579659436686_" class="st3" d="M-0.7,531.4L211.5,380l115.4,65l220.3-204.3
		l88.7,94l172.4,29.4l127-48.5l226.9-14.9L1322,66.9l117.3,66.3"/>
	<path id="Path_2-2_00000176028636552995026440000008598958262722815885_" d="M-0.7,530.9l212.2-151.2l115.4,64.9l220.3-204.1
		l88.7,93.9l172.4,29.4l127-48.5l226.9-14.9L1322,66.9l117.3,66.3V608H-0.7V530.9z"/>
	<circle id="Oval_3_00000067934794746860756900000003329279349958758318_" class="st4" cx="211.3" cy="380.7" r="10"/>
	<circle id="Oval_3_Copy_00000044166611744157554980000008265633798675908491_" class="st4" cx="328.3" cy="441.7" r="10"/>
	<circle id="Oval_3_Copy_2_00000052825430494499244100000002909796840637383095_" class="st4" cx="548.3" cy="238.7" r="10"/>
	<circle id="Oval_3_Copy_3_00000137094300484689442840000012108125906354724253_" class="st4" cx="637.3" cy="331.7" r="10"/>
	<circle id="Oval_3_Copy_4_00000145021611661721060070000001062048125164087740_" class="st4" cx="810.3" cy="360.7" r="10"/>
	<circle id="Oval_3_Copy_5_00000027570325249889046500000011604035145437947830_" class="st4" cx="937.3" cy="314.7" r="10"/>
	<circle id="Oval_3_Copy_6_00000173843379387431671160000015927714752427691696_" class="st4" cx="1162.3" cy="298.7" r="10"/>
	<circle id="Oval_3_Copy_7_00000038392796673218534760000014619544303819704964_" class="st4" cx="1323.3" cy="66.7" r="10"/>
</g>
</svg>
