<?xml version="1.0" encoding="utf-8"?>
<!-- Generator: Adobe Illustrator 26.1.0, SVG Export Plug-In . SVG Version: 6.00 Build 0)  -->
<svg version="1.1" id="Layer_1" xmlns="http://www.w3.org/2000/svg" xmlns:xlink="http://www.w3.org/1999/xlink" x="0px" y="0px"
	 viewBox="0 0 563.8 339.7" style="enable-background:new 0 0 563.8 339.7;" xml:space="preserve">
<style type="text/css">
	.st0{fill:#FFFFFF;}
	.st1{fill:none;stroke:#E8E8E8;stroke-miterlimit:10;}
	.st2{fill:none;stroke:#ECECEC;stroke-linecap:square;stroke-miterlimit:10;}
	.st3{fill:none;stroke:#575757;stroke-width:3;stroke-miterlimit:10;}
	.st4{fill:#FFFFFF;stroke:#575757;stroke-width:2;stroke-miterlimit:10;}
</style>
<g id="Stats" transform="translate(0.863)">
	<g id="Rectangle_2_Copy" transform="translate(20)">
		<rect x="0" y="0" class="st0" width="523" height="320"/>
		<rect x="0.5" y="0.5" class="st1" width="522" height="319"/>
	</g>
	<path id="Line" class="st2" d="M20,31h523"/>
	<path id="Line_Copy_2" class="st2" d="M20,95h523"/>
	<path id="Line_Copy_4" class="st2" d="M20,159h523"/>
	<path id="Line_Copy_6" class="st2" d="M20,223h523"/>
	<path id="Line_Copy_8" class="st2" d="M20,287h523"/>
	<path id="Path_2" class="st3" d="M0,229.7l82.8-59l45.1,25.3l86-79.7l34.6,36.6l67.3,11.5l49.6-18.9l88.6-5.8l62.4-91.1l45.8,25.9"
		/>
	<path id="Path_2-2" d="M0,229.7l82.8-59l45.1,25.3l86-79.7l34.6,36.6l67.3,11.5l49.6-18.9l88.6-5.8l62.4-91.1l45.8,25.9v265.3H0
		V229.7z"/>
	<circle id="Oval_3" class="st4" cx="83.5" cy="170.5" r="7.5"/>
	<circle id="Oval_3_Copy" class="st4" cx="127.5" cy="194.5" r="7.5"/>
	<circle id="Oval_3_Copy_2" class="st4" cx="214.5" cy="116.5" r="7.5"/>
	<circle id="Oval_3_Copy_3" class="st4" cx="249.5" cy="152.5" r="7.5"/>
	<circle id="Oval_3_Copy_4" class="st4" cx="315.5" cy="163.5" r="7.5"/>
	<circle id="Oval_3_Copy_5" class="st4" cx="366.5" cy="145.5" r="7.5"/>
	<circle id="Oval_3_Copy_6" class="st4" cx="453.5" cy="138.5" r="7.5"/>
	<circle id="Oval_3_Copy_7" class="st4" cx="516.5" cy="48.5" r="7.5"/>
</g>
</svg>
