<?xml version="1.0" encoding="utf-8"?>
<!-- Generator: Adobe Illustrator 26.1.0, SVG Export Plug-In . SVG Version: 6.00 Build 0)  -->
<svg version="1.1" id="Layer_1" xmlns="http://www.w3.org/2000/svg" xmlns:xlink="http://www.w3.org/1999/xlink" x="0px" y="0px"
	 viewBox="0 0 1443.6 859.9" style="enable-background:new 0 0 1443.6 859.9;" xml:space="preserve">
<style type="text/css">
	.st0{opacity:0.5;}
	.st1{fill:#5A5B70;}
	.st2{fill:none;stroke:#717287;stroke-width:4;stroke-miterlimit:10;}
	.st3{fill:#FFFFFF;stroke:#717287;stroke-width:3;stroke-miterlimit:10;}
	.st4{stroke:#717287;stroke-width:3;stroke-miterlimit:10;}
</style>
<g id="Stats_00000018238255225007080080000014639401183515129512_" transform="translate(1.832 -1.05)" class="st0">
	<path id="Path_2_00000147915014005077762280000012343221743508876968_" class="st1" d="M0,477.2c0,0,67.6-154.2,152-154.2
		c56.2,0,69,80,175.6,67.9S495,186.8,547.9,186.8S643,272,701,291s73.9-34.3,173-52s173.7,67.6,288.9,7.7s107.4-190.4,159.8-233.5
		S1440,79.4,1440,79.4V861H0V477.2z"/>
	<path id="Path_2-2_00000086682788642114934890000008038656026465688718_" class="st2" d="M0,477.2c0,0,67.6-154.2,152-154.2
		c56.2,0,69,80,175.6,67.9S495,186.8,547.9,186.8S643,272,701,291s73.9-34.3,173-52s173.7,67.6,288.9,7.7s107.4-190.4,159.8-233.5
		S1440,79.4,1440,79.4"/>
	<circle id="Oval_3_00000059283493419878679910000007905191895428656269_" class="st3" cx="140" cy="323" r="10"/>
	<circle id="Oval_3_Copy_00000078767534423134455660000015131112468606960778_" class="st3" cx="326" cy="390" r="10"/>
	<circle id="Oval_3_Copy_2_00000143606859224164823320000000750171012140776632_" class="st3" cx="550" cy="188" r="10"/>
	<circle id="Oval_3_Copy_3_00000031912226776038382870000014704386931031428500_" class="st3" cx="720" cy="293" r="10"/>
	<circle id="Oval_3_Copy_5_00000137849316064580669910000001116170800864915351_" class="st3" cx="903" cy="235" r="10"/>
	<circle id="Oval_3_Copy_6_00000025434473217831366560000013153993383317736101_" class="st3" cx="1163" cy="245" r="10"/>
	<circle id="Oval_3_Copy_7_00000142857105666196149420000007328714464225383821_" class="st3" cx="1324" cy="13" r="10"/>
</g>
<g id="Stats" transform="translate(1.832 -1.05)">
	<path id="Path_2" d="M0,537.2c0,0,67.6-154.2,152-154.2c56.2,0,69,80,175.6,67.9S495,246.8,547.9,246.8S643,332,701,351
		s73.9-34.3,173-52s173.7,67.6,288.9,7.7s107.4-190.4,159.8-233.5s117.3,66.3,117.3,66.3V861H0V537.2z"/>
	<path id="Path_2-2" class="st2" d="M0,537.2c0,0,67.6-154.2,152-154.2c56.2,0,69,80,175.6,67.9S495,246.8,547.9,246.8
		S643,332,701,351s73.9-34.3,173-52s173.7,67.6,288.9,7.7s107.4-190.4,159.8-233.5s117.3,66.3,117.3,66.3"/>
	<circle id="Oval_3" class="st4" cx="140" cy="383" r="10"/>
	<circle id="Oval_3_Copy" class="st4" cx="326" cy="450" r="10"/>
	<circle id="Oval_3_Copy_2" class="st4" cx="550" cy="248" r="10"/>
	<circle id="Oval_3_Copy_3" class="st4" cx="720" cy="353" r="10"/>
	<circle id="Oval_3_Copy_5" class="st4" cx="903" cy="295" r="10"/>
	<circle id="Oval_3_Copy_6" class="st4" cx="1163" cy="305" r="10"/>
	<circle id="Oval_3_Copy_7" class="st4" cx="1324" cy="73" r="10"/>
</g>
</svg>
